<svg xmlns="http://www.w3.org/2000/svg" version="1.1" xmlns:xlink="http://www.w3.org/1999/xlink" xmlns:svgjs="http://svgjs.dev/svgjs" width="1000" height="1000" viewBox="0 0 1000 1000"><rect width="1000" height="1000" fill="#000000"></rect><g transform="matrix(0.7,0,0,0.7,149.57575757575756,282.1265587044535)"><svg viewBox="0 0 396 247" data-background-color="#ffffff" preserveAspectRatio="xMidYMid meet" height="623" width="1000" xmlns="http://www.w3.org/2000/svg" xmlns:xlink="http://www.w3.org/1999/xlink"><g id="tight-bounds" transform="matrix(1,0,0,1,0.2400000000000091,-0.09999999999999432)"><svg viewBox="0 0 395.52 247.2" height="247.2" width="395.52"><g><svg></svg></g><g><svg viewBox="0 0 395.52 247.2" height="247.2" width="395.52"><g transform="matrix(1,0,0,1,75.54432,108.4502664445868)"><svg viewBox="0 0 244.43135999999998 30.299467110826388" height="30.299467110826388" width="244.43135999999998"><g><svg viewBox="0 0 244.43135999999998 30.299467110826388" height="30.299467110826388" width="244.43135999999998"><g><svg viewBox="0 0 244.43135999999998 30.299467110826388" height="30.299467110826388" width="244.43135999999998"><g><svg viewBox="0 0 244.43135999999998 30.299467110826388" height="30.299467110826388" width="244.43135999999998"><g id="textblocktransform"><svg viewBox="0 0 244.43135999999998 30.299467110826388" height="30.299467110826388" width="244.43135999999998" id="textblock"><g><svg viewBox="0 0 244.43135999999998 30.299467110826388" height="30.299467110826388" width="244.43135999999998"><g transform="matrix(1,0,0,1,0,0)"><svg width="244.43135999999998" viewBox="0.6000000238418579 -37.5 312.1600036621094 38.70000076293945" height="30.299467110826388" data-palette-color="#202046"><path d="M13.8-1.6Q12.25-1.6 10.53-1.5 8.8-1.4 7.05-1.2 5.3-1 3.63-0.68 1.95-0.35 0.6 0.1L0.6 0.1Q0.9-2.15 1.3-4.9 1.7-7.65 2.23-10.6 2.75-13.55 3.28-16.55 3.8-19.55 4.35-22.3L4.35-22.3Q5.6-28.85 7-35.65L7-35.65 15.75-36.8Q14.4-31 13.15-25.5L13.15-25.5Q12.6-23.15 12.05-20.63 11.5-18.1 11-15.7 10.5-13.3 10.1-11.05 9.7-8.8 9.45-7.05L9.45-7.05Q10.7-7.15 12.13-7.18 13.55-7.2 14.65-7.2L14.65-7.2Q14.7-6.25 14.8-5.33 14.9-4.4 15.03-3.65 15.15-2.9 15.23-2.33 15.3-1.75 15.35-1.55L15.35-1.55Q14.95-1.55 14.58-1.58 14.2-1.6 13.8-1.6L13.8-1.6ZM35.9-9.75Q35.2-6.9 33.92-4.9 32.65-2.9 30.92-1.6 29.2-0.3 27.25 0.3 25.3 0.9 23.35 0.9L23.35 0.9Q22.2 0.9 21 0.53 19.8 0.15 18.85-0.6 17.9-1.35 17.27-2.5 16.65-3.65 16.65-5.2L16.65-5.2Q16.65-5.4 16.65-5.6 16.65-5.8 16.7-6L16.7-6Q16.9-8.05 17.35-10.95 17.8-13.85 18.3-17 18.8-20.15 19.4-23.33 20-26.5 20.47-29.1 20.95-31.7 21.3-33.43 21.65-35.15 21.75-35.55L21.75-35.55Q22.8-35.65 24.25-35.8 25.7-35.95 26.95-36.05L26.95-36.05Q28.5-36.2 30-36.35L30-36.35Q28.7-30.3 27.7-25.4L27.7-25.4Q27.25-23.3 26.82-21.2 26.4-19.1 26.02-17.35 25.65-15.6 25.37-14.33 25.1-13.05 24.92-12.25 24.75-11.45 24.52-10.23 24.3-9 24.3-8L24.3-8Q24.3-7.2 24.7-6.68 25.1-6.15 25.7-6.15L25.7-6.15Q26.55-6.15 27.1-6.83 27.65-7.5 28.02-8.45 28.4-9.4 28.57-10.38 28.75-11.35 28.9-11.9L28.9-11.9Q29.2-13.35 29.57-15.13 29.95-16.9 30.32-18.82 30.7-20.75 31.07-22.75 31.45-24.75 31.8-26.65L31.8-26.65Q32.65-31.05 33.45-35.75L33.45-35.75 41.05-36.25Q41.05-36.25 40.8-34.95 40.55-33.65 40.15-31.5 39.75-29.35 39.27-26.6 38.8-23.85 38.2-20.88 37.6-17.9 37.02-15.03 36.45-12.15 35.9-9.75L35.9-9.75ZM57.35-2.3Q57.25-2.25 56.65-2.1 56.05-1.95 55.15-1.7 54.25-1.45 53.17-1.15 52.1-0.85 51.07-0.55 50.05-0.25 49.15 0.03 48.25 0.3 47.75 0.5L47.75 0.5Q47.6-1.5 47.5-3.4L47.5-3.4Q47.4-5.05 47.27-6.7 47.15-8.35 47.1-9.45L47.1-9.45Q46.65-8.35 45.92-6.7 45.2-5.05 44.5-3.45L44.5-3.45Q43.65-1.6 42.75 0.3L42.75 0.3 34.25-0.45Q36.75-4.9 39.25-9.25 41.75-13.6 43.85-18.35L43.85-18.35Q43.55-20.6 43.27-22.35 43-24.1 42.65-25.8 42.3-27.5 41.9-29.23 41.5-30.95 41.1-33.15L41.1-33.15 49.1-36.45Q49.35-34.1 49.67-31.25 50-28.4 50.25-26L50.25-26Q51.4-28.5 52.52-31 53.65-33.5 54.85-35.95L54.85-35.95 62.1-34Q60.8-31.8 59.75-29.95 58.7-28.1 57.75-26.25 56.8-24.4 55.85-22.48 54.9-20.55 53.8-18.2L53.8-18.2Q54.1-16 54.5-14.05 54.9-12.1 55.37-10.2 55.85-8.3 56.32-6.38 56.8-4.45 57.35-2.3L57.35-2.3ZM77.39-9.75Q76.69-6.9 75.42-4.9 74.14-2.9 72.42-1.6 70.69-0.3 68.74 0.3 66.79 0.9 64.84 0.9L64.84 0.9Q63.69 0.9 62.49 0.53 61.29 0.15 60.34-0.6 59.39-1.35 58.77-2.5 58.14-3.65 58.14-5.2L58.14-5.2Q58.14-5.4 58.14-5.6 58.14-5.8 58.19-6L58.19-6Q58.39-8.05 58.84-10.95 59.29-13.85 59.79-17 60.29-20.15 60.89-23.33 61.49-26.5 61.97-29.1 62.44-31.7 62.79-33.43 63.14-35.15 63.24-35.55L63.24-35.55Q64.29-35.65 65.74-35.8 67.19-35.95 68.44-36.05L68.44-36.05Q69.99-36.2 71.49-36.35L71.49-36.35Q70.19-30.3 69.19-25.4L69.19-25.4Q68.74-23.3 68.32-21.2 67.89-19.1 67.52-17.35 67.14-15.6 66.87-14.33 66.59-13.05 66.42-12.25 66.24-11.45 66.02-10.23 65.79-9 65.79-8L65.79-8Q65.79-7.2 66.19-6.68 66.59-6.15 67.19-6.15L67.19-6.15Q68.04-6.15 68.59-6.83 69.14-7.5 69.52-8.45 69.89-9.4 70.07-10.38 70.24-11.35 70.39-11.9L70.39-11.9Q70.69-13.35 71.07-15.13 71.44-16.9 71.82-18.82 72.19-20.75 72.57-22.75 72.94-24.75 73.29-26.65L73.29-26.65Q74.14-31.05 74.94-35.75L74.94-35.75 82.54-36.25Q82.54-36.25 82.29-34.95 82.04-33.65 81.64-31.5 81.24-29.35 80.77-26.6 80.29-23.85 79.69-20.88 79.09-17.9 78.52-15.03 77.94-12.15 77.39-9.75L77.39-9.75ZM85.84-2.05L77.74 0.05Q79.09-6.6 80.34-12.95L80.34-12.95Q80.79-15.65 81.34-18.57 81.89-21.5 82.37-24.38 82.84-27.25 83.27-29.93 83.69-32.6 83.94-34.8L83.94-34.8Q86.79-35.7 90.09-36.13 93.39-36.55 96.64-36.55L96.64-36.55Q98.59-36.55 99.87-36.1 101.14-35.65 101.87-34.83 102.59-34 102.89-32.9 103.19-31.8 103.19-30.45L103.19-30.45Q103.19-28.45 102.49-26.53 101.79-24.6 100.62-22.88 99.44-21.15 97.92-19.73 96.39-18.3 94.64-17.4L94.64-17.4Q95.54-15.4 96.57-13.03 97.59-10.65 98.49-8.5L98.49-8.5Q99.49-6 100.54-3.5L100.54-3.5 92.79-0.8Q91.79-4 90.99-6.8L90.99-6.8Q90.64-7.95 90.29-9.18 89.94-10.4 89.64-11.5 89.34-12.6 89.14-13.48 88.94-14.35 88.89-14.9L88.89-14.9 88.24-14.7Q87.94-13.1 87.52-10.95 87.09-8.8 86.74-6.8L86.74-6.8Q86.29-4.45 85.84-2.05L85.84-2.05ZM91.09-29.6L89.49-21.65Q90.44-21.75 91.82-22.45 93.19-23.15 94.44-24.13 95.69-25.1 96.59-26.15 97.49-27.2 97.49-28L97.49-28Q97.49-28.55 97.14-28.88 96.79-29.2 96.17-29.38 95.54-29.55 94.79-29.6 94.04-29.65 93.24-29.65L93.24-29.65Q92.69-29.65 92.12-29.63 91.54-29.6 91.09-29.6L91.09-29.6ZM112.14-1.8L103.59-0.75 105.89-10.8Q105.89-12.95 105.81-15.48 105.74-18 105.59-20.55 105.44-23.1 105.29-25.48 105.14-27.85 105.04-29.68 104.94-31.5 104.84-32.6 104.74-33.7 104.74-33.7L104.74-33.7 112.89-36.8 112.89-30.7Q112.89-29.45 112.89-28.15 112.89-26.85 112.86-25.6 112.84-24.35 112.84-23.25 112.84-22.15 112.84-21.4L112.84-21.4Q113.49-23.1 114.41-25.6 115.34-28.1 116.14-30.45L116.14-30.45Q117.09-33.2 118.09-36.25L118.09-36.25 125.84-34.5Q123.69-30.2 121.64-25.95L121.64-25.95Q120.79-24.1 119.84-22.13 118.89-20.15 117.94-18.18 116.99-16.2 116.09-14.35 115.19-12.5 114.44-10.9L114.44-10.9Q114.19-9.6 113.81-8.05 113.44-6.5 113.09-5.1L113.09-5.1Q112.64-3.45 112.14-1.8L112.14-1.8ZM150.03-10.75Q148.83-8 147.36-5.98 145.88-3.95 144.26-2.58 142.63-1.2 140.98-0.55 139.33 0.1 137.78 0.1L137.78 0.1Q136.23 0.1 134.96-0.6 133.68-1.3 132.73-2.7 131.78-4.1 131.21-6.15 130.63-8.2 130.63-10.95L130.63-10.95Q130.63-15.65 131.93-20.23 133.23-24.8 135.58-28.45 137.93-32.1 141.16-34.33 144.38-36.55 148.28-36.55L148.28-36.55Q149.48-36.55 150.58-36.05 151.68-35.55 152.48-34.65 153.28-33.75 153.76-32.45 154.23-31.15 154.23-29.55L154.23-29.55Q154.23-29.25 154.23-28.93 154.23-28.6 154.18-28.25L154.18-28.25 147.63-26.5Q147.03-27.75 146.23-27.75L146.23-27.75Q145.43-27.75 144.56-26.83 143.68-25.9 142.83-24.43 141.98-22.95 141.18-21.13 140.38-19.3 139.78-17.45 139.18-15.6 138.81-13.93 138.43-12.25 138.43-11.2L138.43-11.2Q138.43-9.6 138.86-8.95 139.28-8.3 139.98-8.3L139.98-8.3Q140.53-8.3 141.23-8.72 141.93-9.15 142.53-9.83 143.13-10.5 143.63-11.35 144.13-12.2 144.33-13.05L144.33-13.05 150.03-10.75ZM163.18-1.6Q161.63-1.6 159.91-1.5 158.18-1.4 156.43-1.2 154.68-1 153.01-0.68 151.33-0.35 149.98 0.1L149.98 0.1Q150.28-2.15 150.68-4.9 151.08-7.65 151.61-10.6 152.13-13.55 152.66-16.55 153.18-19.55 153.73-22.3L153.73-22.3Q154.98-28.85 156.38-35.65L156.38-35.65 165.13-36.8Q163.78-31 162.53-25.5L162.53-25.5Q161.98-23.15 161.43-20.63 160.88-18.1 160.38-15.7 159.88-13.3 159.48-11.05 159.08-8.8 158.83-7.05L158.83-7.05Q160.08-7.15 161.51-7.18 162.93-7.2 164.03-7.2L164.03-7.2Q164.08-6.25 164.18-5.33 164.28-4.4 164.41-3.65 164.53-2.9 164.61-2.33 164.68-1.75 164.73-1.55L164.73-1.55Q164.33-1.55 163.96-1.58 163.58-1.6 163.18-1.6L163.18-1.6ZM192.48-27.05Q192.48-22.95 191.6-19.33 190.73-15.7 189.28-12.68 187.83-9.65 185.9-7.28 183.98-4.9 181.88-3.23 179.78-1.55 177.63-0.68 175.48 0.2 173.53 0.2L173.53 0.2Q171.88 0.2 170.53-0.43 169.18-1.05 168.18-2.27 167.18-3.5 166.6-5.43 166.03-7.35 166.03-10.05L166.03-10.05Q166.03-12.85 166.73-15.95 167.43-19.05 168.63-22.1 169.83-25.15 171.58-27.9 173.33-30.65 175.43-32.77 177.53-34.9 179.93-36.15 182.33-37.4 184.93-37.4L184.93-37.4Q187.18-37.4 188.65-36.48 190.13-35.55 190.95-34.08 191.78-32.6 192.13-30.75 192.48-28.9 192.48-27.05L192.48-27.05ZM173.48-11.35Q173.48-10.8 173.68-10.2 173.88-9.6 174.23-9.15 174.58-8.7 175.1-8.38 175.63-8.05 176.23-8.05L176.23-8.05Q178.48-8.05 180.23-9.6 181.98-11.15 183.13-13.4 184.28-15.65 184.9-18.2 185.53-20.75 185.53-22.85L185.53-22.85Q185.53-23.45 185.45-24.15 185.38-24.85 185.15-25.45 184.93-26.05 184.45-26.48 183.98-26.9 183.18-26.9L183.18-26.9Q181.58-26.9 180.23-26.1 178.88-25.3 177.8-23.98 176.73-22.65 175.93-20.98 175.13-19.3 174.55-17.57 173.98-15.85 173.73-14.2 173.48-12.55 173.48-11.35L173.48-11.35ZM202.63-1.35L193.63 0.05Q194.78-5.45 195.83-10.8L195.83-10.8Q196.28-13.05 196.73-15.5 197.18-17.95 197.6-20.33 198.03-22.7 198.35-24.93 198.68-27.15 198.93-29L198.93-29Q197.78-29.15 196.6-29.1 195.43-29.05 194.28-29.4L194.28-29.4Q194.33-30.2 194.33-31.25 194.33-32.3 194.38-33.35L194.38-33.35Q194.43-34.5 194.48-35.8L194.48-35.8Q195.78-35.7 197.08-35.65 198.38-35.6 199.68-35.6L199.68-35.6Q202.23-35.6 204.6-35.73 206.98-35.85 209-36.02 211.03-36.2 212.98-36.45L212.98-36.45 212.43-33.75Q212.18-32.6 211.95-31.4 211.73-30.2 211.53-29.35L211.53-29.35Q210.43-29.05 209.3-28.93 208.18-28.8 207.08-28.6L207.08-28.6Q206.73-26.9 206.33-24.83 205.93-22.75 205.55-20.53 205.18-18.3 204.83-16 204.48-13.7 204.13-11.6L204.13-11.6Q203.33-6.65 202.63-1.35L202.63-1.35ZM215.32-1.5L207.62 0.1Q209.02-6.9 210.32-13.55L210.32-13.55Q210.82-16.4 211.37-19.48 211.92-22.55 212.4-25.55 212.87-28.55 213.3-31.38 213.72-34.2 213.97-36.5L213.97-36.5Q215.12-36.45 216.1-36.38 217.07-36.3 218.02-36.25 218.97-36.2 219.95-36.18 220.92-36.15 222.07-36.15L222.07-36.15Q221.22-32.6 220.4-29.05 219.57-25.5 218.87-21.9L218.87-21.9 223.82-22.45Q224.52-26 225.07-29.33 225.62-32.65 226.52-36.2L226.52-36.2Q227.67-36.4 229.07-36.52 230.47-36.65 231.67-36.75 232.87-36.85 233.7-36.93 234.52-37 234.52-37L234.52-37Q233.82-34.75 233.2-32.08 232.57-29.4 231.97-26.53 231.37-23.65 230.82-20.7 230.27-17.75 229.82-15.1L229.82-15.1Q228.72-8.75 227.77-2.1L227.77-2.1 219.97-1.2Q220.62-4.2 221.12-7.05L221.12-7.05Q221.62-9.45 222.15-12.05 222.67-14.65 222.97-16.5L222.97-16.5 218.12-16.05Q217.77-14.15 217.3-11.65 216.82-9.15 216.42-6.9L216.42-6.9Q215.87-4.2 215.32-1.5L215.32-1.5ZM237.77-1Q237.32-1 236-0.88 234.67-0.75 233.27-0.58 231.87-0.4 230.75-0.25 229.62-0.1 229.52-0.05L229.52-0.05Q230.02-2.2 230.55-4.83 231.07-7.45 231.62-10.33 232.17-13.2 232.67-16.15 233.17-19.1 233.62-21.85L233.62-21.85Q234.67-28.25 235.72-35L235.72-35 243.52-36.25Q242.37-29.55 241.27-23.1L241.27-23.1Q240.82-20.35 240.35-17.4 239.87-14.45 239.4-11.55 238.92-8.65 238.52-5.93 238.12-3.2 237.77-1L237.77-1ZM246.92-1.45L239.62 0.25Q241.12-6.95 242.47-13.7L242.47-13.7Q242.97-16.6 243.54-19.7 244.12-22.8 244.62-25.83 245.12-28.85 245.52-31.63 245.92-34.4 246.12-36.65L246.12-36.65Q246.77-36.6 247.22-36.6 247.67-36.6 248.27-36.6L248.27-36.6Q248.97-36.6 249.97-36.63 250.97-36.65 251.97-36.7 252.97-36.75 254.12-36.8L254.12-36.8Q254.82-33.3 255.37-30.05L255.37-30.05Q255.92-27.2 256.49-24.2 257.07-21.2 257.52-19.1L257.52-19.1Q257.72-20.1 257.97-21.43 258.22-22.75 258.52-24.2 258.82-25.65 259.09-27.13 259.37-28.6 259.67-30.05L259.67-30.05Q260.37-33.3 261.12-36.75L261.12-36.75 267.22-37.5Q265.52-29.85 264.22-23L264.22-23Q263.62-20.05 263.04-17.03 262.47-14 261.97-11.23 261.47-8.45 261.12-6.08 260.77-3.7 260.57-2.1L260.57-2.1Q260.42-2.1 259.39-1.88 258.37-1.65 257.04-1.35 255.72-1.05 254.39-0.75 253.07-0.45 252.42-0.2L252.42-0.2Q252.12-4.2 251.77-7.8L251.77-7.8Q251.62-9.35 251.44-10.98 251.27-12.6 251.07-14.1 250.87-15.6 250.67-16.9 250.47-18.2 250.27-19.15L250.27-19.15Q250.12-18.2 249.87-16.95 249.62-15.7 249.37-14.3 249.12-12.9 248.87-11.38 248.62-9.85 248.32-8.45L248.32-8.45Q247.67-5.1 246.92-1.45L246.92-1.45ZM289.17-19.05Q288.82-13.95 287.17-10.18 285.52-6.4 283.19-3.85 280.87-1.3 278.19-0.05 275.52 1.2 273.12 1.2L273.12 1.2Q271.27 1.2 269.59 0.4 267.92-0.4 266.69-2.02 265.47-3.65 264.77-6.1 264.07-8.55 264.07-11.85L264.07-11.85Q264.07-18.3 265.92-23.1 267.77-27.9 270.59-31.1 273.42-34.3 276.64-35.85 279.87-37.4 282.67-37.4L282.67-37.4Q284.67-37.4 286.14-36.7 287.62-36 288.57-34.83 289.52-33.65 289.94-32.08 290.37-30.5 290.37-28.75L290.37-28.75 283.52-27.45Q283.07-29.45 282.32-30.3 281.57-31.15 280.62-31.15L280.62-31.15Q279.37-31.15 277.87-29.38 276.37-27.6 275.07-24.8 273.77-22 272.87-18.65 271.97-15.3 271.87-12.05L271.87-12.05Q271.87-8.95 272.79-7.63 273.72-6.3 275.17-6.3L275.17-6.3Q276.17-6.3 277.24-6.8 278.32-7.3 279.17-8.22 280.02-9.15 280.59-10.38 281.17-11.6 281.22-13.05L281.22-13.05 275.87-12.25 276.82-17.2Q279.17-17.5 281.42-17.8L281.42-17.8Q283.32-18.05 285.44-18.4 287.57-18.75 289.17-19.05L289.17-19.05ZM309.06-12.35Q309.06-9.55 307.99-7.28 306.91-5 305.09-3.35 303.26-1.7 300.79-0.8 298.31 0.1 295.46 0.1L295.46 0.1Q293.46 0.1 291.46-0.98 289.46-2.05 287.61-4.4L287.61-4.4 291.31-11.65Q291.66-11 292.36-10.33 293.06-9.65 293.94-9.15 294.81-8.65 295.69-8.33 296.56-8 297.26-8L297.26-8Q297.86-8 298.51-8.2 299.16-8.4 299.71-8.8 300.26-9.2 300.59-9.73 300.91-10.25 300.91-10.95L300.91-10.95Q300.91-12.15 300.14-13.18 299.36-14.2 298.21-15.13 297.06-16.05 295.71-17 294.36-17.95 293.24-19 292.11-20.05 291.31-21.35 290.51-22.65 290.51-24.25L290.51-24.25Q290.51-26.85 292.06-29.1 293.61-31.35 295.94-32.98 298.26-34.6 301.01-35.55 303.76-36.5 306.21-36.5L306.21-36.5Q307.56-36.5 308.76-36.18 309.96-35.85 310.84-35.13 311.71-34.4 312.24-33.3 312.76-32.2 312.76-30.55L312.76-30.55Q312.76-29.85 312.64-29.15 312.51-28.45 312.41-27.65L312.41-27.65 305.16-25.55Q305.26-25.95 305.34-26.35 305.41-26.75 305.41-27.15L305.41-27.15Q305.41-28.65 304.89-29.33 304.36-30 303.51-30L303.51-30Q303.11-30 302.54-29.7 301.96-29.4 301.39-28.93 300.81-28.45 300.41-27.8 300.01-27.15 300.01-26.4L300.01-26.4Q300.01-25.2 300.69-24.4 301.36-23.6 302.36-22.9 303.36-22.2 304.54-21.48 305.71-20.75 306.71-19.6 307.71-18.45 308.39-16.73 309.06-15 309.06-12.35L309.06-12.35Z" opacity="1" transform="matrix(1,0,0,1,0,0)" fill="#ffffff" class="wordmark-text-0" data-fill-palette-color="primary" id="text-0"></path></svg></g></svg></g></svg></g></svg></g><g></g></svg></g></svg></g></svg></g><g><path d="M77.597 101.297A122.216 122.216 0 0 1 317.923 101.297L315.191 101.297A119.483 119.483 0 0 0 80.329 101.297L77.597 101.297M77.597 145.903A122.216 122.216 0 0 0 317.923 145.903L315.191 145.903A119.483 119.483 0 0 1 80.329 145.903L77.597 145.903" fill="#ffffff" stroke="transparent" data-fill-palette-color="tertiary"></path></g></svg></g><defs></defs></svg><rect width="395.52" height="247.2" fill="none" stroke="none" visibility="hidden"></rect></g></svg></g></svg>